<?xml version="1.0" standalone="no"?>
<!DOCTYPE svg PUBLIC "-//W3C//DTD SVG 20010904//EN"
 "http://www.w3.org/TR/2001/REC-SVG-20010904/DTD/svg10.dtd">
<svg version="1.0" xmlns="http://www.w3.org/2000/svg"
 width="400.000000pt" height="400.000000pt" viewBox="0 0 400.000000 400.000000"
 preserveAspectRatio="xMidYMid meet">
<metadata>
Created by potrace 1.14, written by Peter Selinger 2001-2017
</metadata>
<g transform="translate(0.000000,400.000000) scale(0.100000,-0.100000)"
fill="#000000" stroke="none">
<path d="M3195 3520 c-4 -6 5 -10 19 -10 14 0 26 5 26 10 0 6 -9 10 -19 10
-11 0 -23 -4 -26 -10z"/>
<path d="M2963 3468 c-40 -11 -73 -24 -73 -29 0 -13 15 -11 94 9 38 10 71 23
74 30 5 16 -9 14 -95 -10z"/>
<path d="M2703 3400 c-13 -5 -23 -12 -23 -15 0 -11 47 -4 66 10 19 14 19 14
-1 14 -11 0 -30 -4 -42 -9z"/>
<path d="M2490 3348 c-19 -5 -52 -14 -72 -19 -48 -12 -51 -34 -4 -25 64 12
136 37 136 46 0 12 -13 11 -60 -2z"/>
<path d="M1853 3340 c-23 -9 -23 -12 -23 -188 l0 -179 -61 -17 c-162 -45 -288
-152 -329 -279 -7 -24 -21 -42 -35 -47 -28 -11 -35 -29 -35 -89 0 -49 21 -91
46 -91 11 0 14 -20 14 -106 0 -97 -1 -106 -17 -99 -223 93 -467 95 -676 6 -45
-19 -46 -19 -96 0 -28 10 -60 19 -70 19 -10 0 -36 12 -57 26 -45 31 -70 23
-67 -22 2 -16 -6 -61 -17 -100 -11 -38 -20 -90 -20 -113 0 -35 -7 -52 -39 -93
-79 -98 -100 -178 -48 -178 12 0 44 13 71 29 l50 29 48 -43 c27 -24 72 -52
100 -63 45 -17 52 -24 70 -68 11 -27 26 -62 34 -78 8 -16 13 -29 12 -30 -2 -1
-35 -12 -73 -24 -143 -44 -232 -121 -221 -190 7 -44 45 -93 107 -140 l50 -37
-28 -6 c-15 -4 -69 -7 -119 -8 -103 -1 -109 -6 -92 -68 15 -56 51 -122 97
-181 23 -28 41 -54 41 -56 0 -3 -21 -33 -48 -68 -50 -66 -90 -149 -99 -203
l-5 -32 62 -6 c35 -4 108 -7 162 -7 92 0 99 -1 93 -18 -5 -17 4 -19 107 -25
355 -20 1135 -29 1632 -18 286 6 567 14 624 18 94 6 102 8 97 25 -6 17 1 18
108 18 63 0 135 3 161 6 41 6 46 9 46 33 0 38 -54 147 -106 213 l-44 57 54 75
c57 79 99 174 94 210 -3 19 -11 21 -118 27 -63 4 -134 7 -158 8 -35 1 -42 4
-40 18 3 16 -11 19 -144 24 -82 3 -150 8 -152 10 -7 7 61 156 98 212 59 94
119 130 180 109 17 -6 58 -21 91 -32 47 -17 67 -20 91 -12 28 8 44 2 167 -65
75 -41 141 -72 146 -69 12 8 151 264 151 279 0 6 -12 21 -26 32 -25 20 -26 22
-11 51 36 72 29 150 -21 204 -25 28 -1036 580 -1061 580 -6 0 -11 18 -11 41 0
47 -14 79 -36 79 -8 0 -17 8 -20 18 -48 148 -150 243 -323 302 l-75 25 1 55
c1 30 -2 61 -7 69 -5 9 -2 28 8 48 12 26 13 40 4 70 -6 21 -8 50 -5 65 3 18
-1 32 -16 47 -19 19 -32 21 -133 20 -62 0 -123 -4 -135 -9z m151 -49 c4 -5 -2
-7 -13 -4 -10 3 -22 0 -25 -6 -5 -7 -1 -8 11 -4 17 6 17 6 1 -10 -9 -9 -20
-26 -23 -37 -5 -16 -10 -18 -26 -10 -16 9 -19 7 -19 -10 0 -28 29 -82 40 -75
5 3 11 -3 15 -14 6 -20 52 -41 90 -41 15 0 25 -8 28 -22 5 -20 4 -21 -6 -7 -7
9 -27 19 -45 22 -30 6 -32 5 -18 -9 9 -8 16 -24 16 -35 0 -12 5 -17 10 -14 7
4 8 -3 4 -20 -4 -18 -2 -30 6 -35 21 -13 -53 -24 -111 -17 -27 3 -54 9 -59 12
-6 4 -10 76 -10 176 l0 169 64 0 c36 0 67 -4 70 -9z m77 -70 c20 -16 22 -23
14 -47 -18 -52 -95 -42 -95 12 0 20 32 54 51 54 4 0 17 -9 30 -19z m-131 -60
c0 -11 -4 -9 -15 5 -8 10 -15 25 -15 33 0 11 4 9 15 -5 8 -10 15 -25 15 -33z
m127 -188 c-3 -10 -5 -2 -5 17 0 19 2 27 5 18 2 -10 2 -26 0 -35z m-293 -112
c47 -22 57 -23 160 -16 157 11 200 9 237 -11 48 -24 60 -40 66 -82 4 -32 0
-43 -29 -75 l-34 -37 -352 0 c-194 0 -352 2 -352 5 0 17 52 104 77 130 41 42
93 80 110 80 8 0 17 5 21 11 7 11 33 24 42 20 3 -1 27 -13 54 -25z m755 -308
c0 -21 -3 -33 -5 -27 -3 7 -25 8 -67 3 -271 -33 -598 -30 -906 7 -134 16 -141
18 -141 40 0 12 79 14 560 14 l560 0 -1 -37z m245 -167 c105 -57 286 -154 401
-216 485 -260 483 -259 471 -305 -7 -28 -86 -115 -104 -115 -6 0 -18 13 -27
30 -18 34 -47 53 -69 44 -9 -3 -38 -37 -66 -75 -28 -38 -55 -69 -60 -69 -20 0
-9 46 20 90 49 74 49 134 0 160 -11 6 -43 15 -71 20 -38 7 -63 20 -94 49 -35
32 -56 42 -107 52 -54 10 -69 18 -103 54 -76 80 -113 79 -168 -3 -34 -50 -51
-60 -73 -41 -12 10 -14 23 -10 53 18 118 18 127 1 147 -11 11 -31 19 -49 19
-82 0 -146 69 -146 156 0 54 0 54 32 54 21 0 94 -34 222 -104z m-389 34 c-18
-35 -17 -35 -55 -15 -27 14 -30 14 -49 -11 -12 -15 -21 -32 -21 -40 0 -7 -4
-14 -10 -16 -5 -1 -185 -2 -400 0 l-390 2 0 49 c0 26 3 51 7 54 3 4 215 7 470
7 l464 0 -16 -30z m-38 -54 c3 -3 2 -10 -2 -16 -5 -8 -11 -8 -21 1 -8 6 -16
10 -18 8 -10 -14 -117 -221 -114 -223 2 -2 54 -30 115 -62 62 -32 113 -62 113
-67 0 -8 -18 0 -157 75 l-93 50 44 81 c91 168 89 165 110 161 10 -2 21 -5 23
-8z m90 -88 c20 -22 105 -68 126 -68 8 0 27 -10 42 -22 27 -21 27 -24 22 -90
-7 -77 3 -110 38 -126 32 -15 60 -5 130 42 77 53 103 51 145 -9 30 -43 31 -44
101 -51 51 -5 78 -13 97 -29 15 -12 45 -30 67 -41 71 -33 79 -54 49 -135 -8
-24 -16 -56 -16 -72 l-1 -27 -41 24 c-23 13 -82 46 -133 72 -50 27 -89 52 -86
57 3 5 0 7 -8 5 -17 -6 -111 41 -104 52 3 4 -3 7 -13 6 -9 0 -16 5 -14 12 1 8
-2 11 -8 7 -9 -5 -84 32 -290 143 -86 46 -101 57 -93 66 4 4 0 4 -9 1 -23 -9
-81 32 -74 52 3 8 2 12 -3 9 -5 -3 -12 1 -15 10 -13 35 -5 101 20 154 l26 55
13 -38 c7 -21 21 -48 32 -59z m-822 -8 c-77 -3 -132 -7 -123 -8 12 -1 15 -7
11 -18 -5 -14 -1 -16 20 -12 15 3 25 2 22 -2 -6 -10 156 -11 192 -1 23 7 33 6
37 -2 2 -7 8 -2 11 11 4 12 12 23 19 23 6 1 -2 5 -19 9 l-30 8 31 1 c40 1 47
-6 23 -30 -31 -31 -30 -37 59 -436 l10 -43 -63 0 -62 0 -7 41 c-13 83 -103
259 -132 259 -23 0 -16 -25 21 -82 55 -82 87 -195 87 -304 1 -132 -39 -241
-128 -355 -60 -75 -94 -99 -144 -99 l-41 0 27 36 c35 46 45 134 20 182 -53
103 -200 122 -275 37 -61 -70 -62 -157 -4 -226 16 -19 21 -30 13 -28 -20 6
-121 201 -160 308 -30 81 -30 84 -13 109 39 54 52 89 53 140 0 103 -35 145
-136 159 l-59 8 -6 45 c-7 59 -31 105 -86 161 -32 33 -41 49 -32 54 8 5 10 4
5 -3 -4 -7 -3 -12 3 -12 5 0 12 4 16 9 9 16 133 39 273 52 107 10 145 10 195
0 81 -17 189 -67 254 -119 29 -23 57 -42 63 -42 25 0 6 33 -42 71 -29 23 -53
45 -52 50 1 5 2 20 3 34 l1 25 143 -2 142 -2 -140 -6z m418 3 c-34 -2 -93 -2
-130 0 -37 2 -9 3 62 3 72 0 102 -1 68 -3z m75 -18 c-25 -29 -25 -29 -34 -12
-4 6 -4 9 1 5 5 -5 14 1 22 12 8 11 18 20 24 20 5 0 -1 -11 -13 -25z m102 18
c0 -5 -5 -15 -11 -23 -9 -13 -10 -13 -5 2 3 12 -2 18 -17 21 -18 4 -17 5 6 6
15 0 27 -2 27 -6z m94 -17 c-3 -9 -10 -16 -15 -16 -5 0 -4 9 3 20 14 22 21 20
12 -4z m-1630 -66 c8 -8 6 -9 -8 -4 -13 5 -17 4 -12 -4 3 -6 1 -14 -5 -18 -8
-4 -9 -3 -5 4 5 8 -1 12 -16 13 -23 1 -23 1 2 8 22 6 20 8 -19 14 -24 4 -46 5
-49 2 -3 -3 6 -5 19 -5 19 0 21 -2 9 -10 -11 -7 -9 -11 12 -19 21 -8 27 -18
33 -57 5 -34 3 -49 -6 -55 -14 -8 -32 -2 -25 9 2 4 -11 8 -30 9 -28 3 -32 0
-28 -15 4 -12 3 -13 -3 -4 -13 17 -87 27 -77 10 6 -9 3 -9 -9 0 -18 15 -13 71
7 84 6 4 8 8 3 8 -4 0 0 11 9 25 9 14 14 36 12 48 l-5 24 90 -28 c49 -15 95
-33 101 -39z m1217 52 c-7 -2 -18 1 -23 6 -8 8 -4 9 13 5 13 -4 18 -8 10 -11z
m277 -24 c2 -15 -4 -41 -13 -58 -11 -21 -13 -35 -7 -43 6 -8 -2 -87 -25 -227
-41 -262 -41 -260 -54 -260 -6 0 -6 6 0 19 14 26 -14 108 -40 116 -15 5 -16 9
-7 24 8 13 8 27 0 51 -10 28 -6 52 33 192 25 88 52 173 61 190 19 36 48 34 52
-4z m-306 -10 c8 -13 23 -48 35 -78 20 -55 20 -56 2 -79 -26 -31 -24 -37 11
-45 39 -7 54 -42 33 -74 -8 -13 -13 -25 -11 -26 2 -1 15 -10 30 -19 40 -25 48
-80 17 -113 l-22 -24 22 0 c57 0 85 -53 57 -108 -17 -33 -13 -42 20 -42 17 0
25 -10 38 -47 19 -57 19 -53 0 -53 -8 0 -22 -7 -30 -15 -23 -22 -83 -23 -96
-2 -14 21 -8 27 12 15 39 -25 77 23 45 56 -21 21 -31 20 -54 -3 -19 -19 -19
-19 -23 7 -3 15 -35 162 -72 326 -38 170 -65 309 -62 323 8 29 29 30 48 1z
m181 5 c20 -3 37 -7 37 -9 0 -6 -82 -299 -85 -302 -1 -1 -9 0 -18 4 -13 5 -14
10 -5 29 14 30 -5 82 -33 90 -15 5 -17 10 -8 26 11 21 -6 90 -37 151 l-14 27
62 -5 c35 -3 80 -8 101 -11z m24 11 c-3 -3 -12 -4 -19 -1 -8 3 -5 6 6 6 11 1
17 -2 13 -5z m202 -30 c-10 -13 -10 -17 2 -26 11 -8 11 -9 -3 -4 -22 7 -24
-10 -2 -18 22 -9 51 -7 38 2 -18 12 -24 41 -14 64 9 21 10 21 9 3 -1 -11 -1
-23 0 -27 0 -5 1 -11 2 -15 1 -5 10 -20 20 -34 27 -38 13 -42 -41 -13 l-47 26
21 39 c11 21 23 34 24 28 2 -5 -2 -17 -9 -25z m-1442 -160 c14 -46 15 -62 3
-128 l-13 -76 -74 -40 c-70 -39 -76 -40 -111 -29 -94 30 -150 74 -178 138 -18
42 -18 51 1 51 8 0 22 11 31 26 12 17 20 22 27 15 19 -19 55 -13 62 10 7 21 7
20 34 -5 49 -47 101 -21 87 45 -20 95 -21 87 15 97 30 8 37 6 67 -21 19 -19
39 -52 49 -83z m1553 40 c0 -2 -9 0 -20 6 -11 6 -20 13 -20 16 0 2 9 0 20 -6
11 -6 20 -13 20 -16z m-75 -50 c83 -48 119 -76 138 -105 22 -34 23 -38 6 -29
-10 6 -19 15 -19 21 0 14 -27 41 -33 31 -2 -4 -2 -1 -1 6 2 7 -8 17 -22 22
-14 6 -32 17 -40 25 -23 23 -36 18 -22 -7 13 -25 19 -178 6 -178 -4 0 -8 -7
-8 -15 0 -11 18 -15 83 -18 45 -1 4 -4 -90 -5 -108 -1 -173 2 -173 8 0 12 39
258 45 288 3 12 8 22 12 22 3 0 56 -30 118 -66z m171 -12 c-11 -19 114 -88
140 -78 9 3 12 1 9 -4 -3 -6 -1 -10 5 -10 6 0 27 -7 48 -17 20 -9 39 -17 42
-18 56 -17 401 -208 432 -238 56 -56 19 -101 -64 -78 -66 19 -120 20 -150 5
-45 -23 -106 -110 -166 -236 -55 -116 -57 -118 -90 -118 -21 0 -46 10 -68 26
-51 39 -109 43 -158 9 -21 -14 -47 -25 -57 -23 -16 2 -4 25 72 133 50 72 110
168 133 215 36 74 41 94 41 153 0 66 -1 70 -36 100 -20 18 -58 45 -84 61 -55
34 -86 86 -65 111 13 16 25 21 16 7z m-106 -62 c12 -8 11 -10 -7 -10 -13 0
-23 5 -23 10 0 13 11 13 30 0z m-1970 -14 c0 -2 -7 -7 -16 -10 -8 -3 -12 -2
-9 4 6 10 25 14 25 6z m1967 -32 c3 -18 2 -18 -6 1 -8 16 -10 10 -9 -25 0 -37
1 -41 8 -20 l8 25 1 -28 c2 -50 -24 -24 -27 27 -2 36 0 47 10 44 7 -3 14 -13
15 -24z m-1476 -1 c13 -16 12 -17 -3 -4 -10 7 -18 15 -18 17 0 8 8 3 21 -13z
m1529 13 c0 -3 -4 -8 -10 -11 -5 -3 -10 -1 -10 4 0 6 5 11 10 11 6 0 10 -2 10
-4z m-2000 -30 c0 -2 -7 -7 -16 -10 -8 -3 -12 -2 -9 4 6 10 25 14 25 6z m1977
-28 c-3 -8 -6 -5 -6 6 -1 11 2 17 5 13 3 -3 4 -12 1 -19z m-1516 2 c31 -17 66
-100 41 -100 -10 0 -72 87 -72 100 0 13 7 13 31 0z m1589 0 c0 -5 -5 -10 -11
-10 -5 0 -7 5 -4 10 3 6 8 10 11 10 2 0 4 -4 4 -10z m117 -45 c34 -34 35 -38
31 -95 -3 -43 -15 -80 -42 -135 -22 -41 -42 -75 -46 -75 -3 0 -6 76 -6 170 1
191 3 195 63 135z m-175 -2 c-6 -2 -10 -9 -6 -14 3 -5 -2 -9 -10 -9 -10 0 -13
6 -10 15 4 8 14 15 23 14 10 0 11 -2 3 -6z m58 -8 c0 -8 -5 -15 -11 -15 -5 0
-8 4 -5 9 4 5 0 12 -6 14 -8 3 -6 6 5 6 9 1 17 -6 17 -14z m-1606 -34 c6 -9
-144 -101 -164 -101 -28 0 2 28 71 68 79 45 85 47 93 33z m51 -72 c4 -11 5
-22 3 -24 -1 -1 -43 -24 -92 -50 -85 -46 -89 -47 -102 -30 -8 11 -11 22 -7 26
15 14 168 98 180 99 6 0 15 -9 18 -21z m981 -6 c3 -16 9 -42 14 -58 4 -19 2
-48 -6 -75 -18 -58 -18 -59 6 -68 20 -8 20 -9 -11 -67 -17 -33 -37 -66 -44
-73 -8 -9 -44 -14 -109 -15 -53 -1 -95 0 -94 3 87 173 108 236 108 327 l0 53
65 0 c62 0 65 -1 71 -27z m584 -116 l0 -144 -31 -47 -31 -47 -121 3 -122 3
-37 64 c-34 59 -36 66 -20 77 15 11 15 16 -1 68 -12 36 -16 69 -12 93 14 79
-3 73 196 73 l179 0 0 -143z m998 117 c31 -22 80 -35 88 -23 3 5 10 7 15 4 5
-4 9 -2 9 3 0 5 6 9 14 9 13 0 13 -4 1 -27 -23 -45 -74 -93 -91 -86 -8 3 -13
2 -10 -3 3 -5 -4 -11 -17 -15 -33 -9 -59 -7 -53 3 4 5 -4 7 -16 3 -16 -4 -19
-2 -13 8 5 9 4 11 -3 6 -6 -4 -25 0 -42 9 l-30 16 20 21 c11 12 20 26 20 30 0
15 52 58 69 58 9 0 27 -7 39 -16z m199 -42 c10 -6 4 -23 -22 -66 -19 -32 -35
-61 -35 -63 0 -3 -16 -34 -36 -69 l-36 -64 -86 47 c-48 26 -90 51 -93 56 -3 5
-8 8 -10 6 -2 -1 -17 5 -34 14 -16 9 -26 16 -22 17 10 0 57 -23 160 -79 43
-24 80 -41 81 -39 2 1 28 50 60 107 38 71 53 108 46 115 -22 22 -1 36 27 18z
m-2687 -113 c20 -52 60 -141 89 -198 59 -119 58 -121 -32 -121 -42 0 -59 4
-63 15 -4 8 -11 12 -16 9 -6 -4 -8 1 -4 13 4 12 1 25 -9 33 -8 7 -15 17 -15
22 0 17 -71 108 -80 103 -5 -3 -12 0 -16 6 -4 8 -3 9 4 5 19 -11 14 3 -13 38
-14 18 -25 38 -25 43 0 14 -29 37 -37 30 -3 -4 0 -15 8 -24 12 -17 12 -17 -6
-1 -12 11 -16 21 -10 27 19 19 170 101 180 98 5 -2 26 -46 45 -98z m2599 4
c-23 -43 -46 -82 -51 -88 -5 -6 -47 11 -113 45 -109 57 -144 87 -52 45 28 -14
66 -25 82 -25 43 0 107 33 136 68 42 53 41 35 -2 -45z m-1656 -13 c3 -12 0
-20 -8 -20 -8 0 -11 8 -8 20 3 11 7 20 8 20 1 0 5 -9 8 -20z m85 -2 c-7 -19
-38 -22 -38 -4 0 10 9 16 21 16 12 0 19 -5 17 -12z m-642 -47 c21 -13 38 -36
49 -65 17 -43 17 -48 1 -91 -21 -53 -66 -85 -122 -85 -47 1 -65 14 -84 59 -21
51 -17 113 9 150 12 17 19 31 14 32 -4 0 1 4 12 9 34 15 89 11 121 -9z m588
-31 c29 0 46 -183 20 -209 -3 -3 -53 -8 -110 -9 l-105 -4 48 49 c27 26 66 82
87 123 22 41 41 69 44 62 2 -6 9 -12 16 -12z m154 -44 c47 -76 98 -133 141
-156 l36 -19 -117 -1 c-70 0 -119 4 -123 10 -15 24 -55 194 -48 201 8 8 38 16
63 18 9 0 30 -23 48 -53z m-1634 16 c3 -5 -1 -9 -9 -9 -8 0 -12 4 -9 9 3 4 7
8 9 8 2 0 6 -4 9 -8z m138 -4 c27 -22 30 -53 7 -81 -31 -40 -74 -35 -98 10
-28 54 42 109 91 71z m215 -55 c22 -32 52 -77 67 -100 l26 -43 -28 0 c-25 0
-30 5 -41 40 -13 43 -50 70 -95 70 -24 0 -24 2 -14 33 12 35 26 57 38 57 4 0
25 -26 47 -57z m68 -3 c3 -5 1 -10 -4 -10 -6 0 -11 5 -11 10 0 6 2 10 4 10 3
0 8 -4 11 -10z m-386 -63 c8 -10 7 -14 -2 -14 -8 0 -14 6 -14 14 0 7 1 13 2
13 2 0 8 -6 14 -13z m299 -25 c6 -9 12 -26 12 -39 0 -21 -4 -23 -60 -23 -54 0
-60 2 -60 20 0 12 11 32 25 46 27 27 59 26 83 -4z m977 8 c-18 -29 -86 -50
-160 -50 l-76 0 23 30 c22 30 22 30 120 30 65 0 97 -4 93 -10z m575 2 c0 -4
-7 -18 -16 -30 l-15 -22 -50 25 c-27 14 -49 28 -49 30 0 3 29 5 65 5 36 0 65
-3 65 -8z m-340 -39 c0 -7 -4 -13 -10 -13 -5 0 -10 12 -10 28 0 21 2 24 10 12
5 -8 10 -21 10 -27z m523 -10 c-13 -2 -35 -2 -50 0 -16 2 -5 4 22 4 28 0 40
-2 28 -4z m267 -72 c74 -4 129 -8 123 -9 -7 -1 -13 -8 -13 -16 0 -7 -22 -43
-50 -79 -27 -36 -59 -84 -71 -107 -12 -23 -25 -37 -28 -32 -3 5 -25 12 -48 14
-70 8 -115 -40 -87 -93 13 -26 56 -45 74 -34 6 4 10 -1 10 -9 0 -10 -13 -16
-42 -18 -35 -2 -43 -7 -43 -23 0 -15 8 -21 34 -25 l33 -5 -33 -42 c-34 -41
-84 -75 -149 -102 -27 -11 -114 -15 -395 -18 -377 -5 -654 7 -810 33 -100 17
-216 66 -254 107 -13 15 -28 24 -34 20 -6 -3 -7 -1 -3 5 3 5 0 13 -6 16 -10 5
-10 7 1 12 11 5 11 8 0 15 -11 7 -10 9 4 9 12 0 17 -8 17 -25 0 -20 5 -25 25
-25 25 0 25 1 25 84 0 78 -2 86 -25 104 -26 20 -57 20 -83 -1 -10 -8 -13 -7
-11 4 7 36 -11 65 -108 168 -34 36 -60 67 -58 69 19 19 1652 21 2005 3z
m-2113 -128 c28 -43 69 -99 92 -125 23 -25 41 -49 41 -53 0 -16 -73 -94 -83
-88 -6 3 -7 1 -3 -5 4 -6 -9 -32 -29 -58 -20 -26 -43 -60 -51 -75 -14 -29 -15
-29 -102 -28 -48 1 -111 4 -140 7 l-53 7 27 52 c15 29 49 78 75 110 27 32 49
65 49 73 0 8 -25 49 -57 90 -31 41 -64 93 -74 115 l-18 40 77 6 c42 3 104 6
138 7 l61 2 50 -77z m2621 62 c6 -6 -35 -89 -59 -121 -13 -17 -39 -50 -56 -74
-18 -24 -33 -46 -33 -50 0 -3 25 -40 56 -81 32 -41 65 -92 75 -114 l18 -40
-52 -7 c-29 -3 -90 -6 -137 -7 l-85 -1 -40 62 c-22 34 -64 90 -93 125 l-54 63
60 74 c33 41 75 99 93 129 l34 54 135 -5 c74 -2 137 -6 138 -7z m-443 -124 c3
-5 2 -12 -3 -15 -5 -3 -9 1 -9 9 0 17 3 19 12 6z m-1917 -86 c-3 -3 -9 2 -12
12 -6 14 -5 15 5 6 7 -7 10 -15 7 -18z m82 -30 c0 -18 -4 -23 -15 -19 -8 4
-15 15 -15 25 0 10 7 19 15 19 9 0 15 -9 15 -25z m1722 18 c-6 -2 -9 -10 -5
-15 4 -8 -2 -9 -18 -5 -13 4 -32 7 -41 7 -10 0 -18 5 -18 10 0 6 21 10 48 9
26 0 41 -3 34 -6z m-1804 -108 c-3 -3 -9 2 -12 12 -6 14 -5 15 5 6 7 -7 10
-15 7 -18z m1893 -2 c13 -16 12 -17 -3 -4 -10 7 -18 15 -18 17 0 8 8 3 21 -13z
m-2001 4 c0 -2 -12 -14 -27 -28 l-28 -24 24 28 c23 25 31 32 31 24z m2034 -43
c3 -8 2 -12 -4 -9 -6 3 -10 10 -10 16 0 14 7 11 14 -7z m-2071 -171 c-7 -2
-19 -2 -25 0 -7 3 -2 5 12 5 14 0 19 -2 13 -5z m2044 1 c-3 -3 -12 -4 -19 -1
-8 3 -5 6 6 6 11 1 17 -2 13 -5z m-1760 -10 c-3 -3 -12 -4 -19 -1 -8 3 -5 6 6
6 11 1 17 -2 13 -5z m1550 0 c-3 -3 -12 -4 -19 -1 -8 3 -5 6 6 6 11 1 17 -2
13 -5z m-1079 -11 c-10 -2 -26 -2 -35 0 -10 3 -2 5 17 5 19 0 27 -2 18 -5z
m215 0 c-24 -2 -62 -2 -85 0 -24 2 -5 4 42 4 47 0 66 -2 43 -4z m180 0 c-13
-2 -33 -2 -45 0 -13 2 -3 4 22 4 25 0 35 -2 23 -4z"/>
<path d="M1940 3260 c0 -19 3 -21 12 -12 9 9 9 15 0 24 -9 9 -12 7 -12 -12z"/>
<path d="M1220 2224 c-96 -42 -134 -136 -91 -230 26 -57 72 -87 141 -92 67 -5
107 12 145 62 67 88 34 210 -70 257 -48 22 -79 23 -125 3z m136 -44 c46 -29
71 -96 55 -150 -22 -75 -106 -116 -179 -88 -80 30 -110 143 -55 208 14 18 36
36 47 40 38 16 98 11 132 -10z"/>
<path d="M1477 1878 c-21 -6 -54 -26 -73 -46 -77 -79 -65 -198 28 -259 112
-75 258 6 258 141 0 56 -18 94 -60 129 -26 22 -92 49 -110 46 -3 -1 -22 -6
-43 -11z m128 -62 c27 -21 28 -25 15 -42 -14 -17 -13 -18 1 -6 15 11 18 9 27
-17 15 -43 -7 -129 -29 -115 -5 3 -8 0 -7 -8 4 -18 -68 -51 -95 -44 -12 3 -33
22 -46 42 -40 63 -37 120 11 178 36 44 78 48 123 12z"/>
<path d="M510 2196 c0 -20 2 -36 4 -36 8 0 12 61 4 66 -4 3 -8 -11 -8 -30z"/>
<path d="M542 2185 c0 -16 2 -22 5 -12 2 9 2 23 0 30 -3 6 -5 -1 -5 -18z"/>
<path d="M471 2123 c-1 -6 -4 -20 -7 -30 -5 -17 -5 -17 6 0 6 10 9 23 6 30 -3
9 -5 9 -5 0z"/>
<path d="M2310 2126 c0 -2 7 -7 16 -10 8 -3 12 -2 9 4 -6 10 -25 14 -25 6z"/>
<path d="M2503 938 c2 -11 -88 -13 -106 -1 -14 9 -37 -19 -38 -46 l-1 -26 -9
27 c-9 24 -29 37 -66 44 -20 4 -63 -36 -64 -59 -1 -21 -2 -21 -6 -2 -11 45
-57 71 -97 55 -32 -12 -47 -42 -50 -94 -2 -35 -5 -41 -23 -38 -12 2 -24 -2
-28 -8 -3 -5 -15 -10 -26 -10 -16 0 -19 7 -19 50 0 43 3 50 20 50 11 0 20 -4
20 -10 0 -5 11 -10 25 -10 34 0 33 32 -1 59 -31 24 -70 20 -96 -11 -26 -30
-25 -131 2 -158 30 -30 83 -27 109 7 l21 26 -2 -24 c-3 -20 2 -24 22 -24 18 0
25 5 24 18 -2 23 9 22 31 -3 25 -28 52 -26 57 5 3 13 1 23 -5 22 -5 -1 -12 4
-15 12 -2 8 0 11 6 7 5 -3 14 6 18 22 7 24 9 20 14 -28 4 -47 8 -55 28 -58 18
-3 22 1 22 22 0 32 27 35 32 4 2 -18 9 -23 35 -23 17 0 34 -3 38 -7 16 -15 45
13 45 42 0 25 4 30 24 30 14 0 27 4 30 9 11 18 -6 41 -30 41 -43 0 -28 28 19
32 74 8 77 4 77 -73 0 -56 3 -70 18 -78 30 -16 42 7 42 80 0 57 3 67 19 72 10
2 24 15 31 27 7 13 8 20 2 16 -6 -3 -13 -2 -16 3 -3 5 -31 7 -61 6 -30 -2 -55
1 -55 6 0 5 -4 9 -10 9 -5 0 -9 -5 -7 -12z m-343 -78 c0 -13 -7 -20 -20 -20
-13 0 -20 7 -20 20 0 13 7 20 20 20 13 0 20 -7 20 -20z m140 0 c0 -11 -7 -20
-15 -20 -8 0 -15 9 -15 20 0 11 7 20 15 20 8 0 15 -9 15 -20z"/>
<path d="M1282 929 c-19 -7 -21 -12 -12 -29 6 -11 17 -20 25 -20 11 0 15 -14
17 -52 0 -29 2 -57 3 -63 2 -5 3 -16 4 -22 0 -7 10 -13 21 -13 21 0 22 5 24
100 1 40 4 45 23 44 13 0 21 1 18 4 -2 3 0 13 5 23 7 12 6 20 -2 26 -18 11
-99 12 -126 2z"/>
<path d="M1470 932 c-29 -9 -50 -35 -50 -63 0 -35 21 -56 66 -65 44 -8 33 -22
-21 -26 -32 -2 -40 -7 -40 -23 0 -18 7 -20 60 -20 55 0 61 2 73 28 7 15 10 37
7 48 -8 25 -62 59 -81 52 -8 -3 -14 0 -14 5 0 6 19 12 43 14 35 2 43 7 45 26
2 12 0 23 -5 23 -32 5 -70 5 -83 1z"/>
<path d="M1702 929 c-28 -11 -46 -53 -32 -79 7 -13 7 -21 0 -25 -15 -9 -12
-48 6 -73 17 -25 71 -31 92 -10 9 9 15 9 24 0 15 -15 48 -16 48 0 0 6 -7 20
-16 30 -13 14 -14 21 -5 32 17 21 4 39 -24 33 -21 -4 -23 -1 -18 29 8 52 -27
81 -75 63z m33 -49 c3 -5 -1 -10 -10 -10 -9 0 -13 5 -10 10 3 6 8 10 10 10 2
0 7 -4 10 -10z m0 -90 c3 -5 -1 -10 -9 -10 -9 0 -16 5 -16 10 0 6 4 10 9 10 6
0 13 -4 16 -10z"/>
<path d="M1140 908 c-17 -18 -20 -35 -20 -100 0 -72 2 -78 20 -78 12 0 24 9
28 21 l8 20 18 -20 c35 -38 81 -20 52 20 -13 19 -12 23 6 41 16 16 19 28 14
57 -3 20 -13 42 -23 48 -27 21 -80 16 -103 -9z m78 -45 c5 -17 -26 -29 -40
-15 -6 6 -7 15 -3 22 9 14 37 9 43 -7z"/>
<path d="M2205 3269 c-4 -6 -5 -12 -2 -15 7 -7 37 7 37 17 0 13 -27 11 -35 -2z"/>
<path d="M2200 3184 c0 -11 8 -14 32 -12 46 4 49 28 4 28 -26 0 -36 -4 -36
-16z"/>
<path d="M2422 3188 c4 -9 30 -13 91 -13 120 0 118 19 -1 23 -73 2 -93 0 -90
-10z"/>
<path d="M2762 3188 c6 -18 68 -19 68 -2 0 9 -12 14 -36 14 -24 0 -34 -4 -32
-12z"/>
<path d="M2980 3191 c0 -16 42 -23 117 -19 100 5 84 23 -24 26 -59 2 -93 -1
-93 -7z"/>
<path d="M2180 3132 c0 -12 60 -32 73 -24 14 7 -6 21 -41 28 -20 4 -32 3 -32
-4z"/>
<path d="M2396 3061 c12 -13 167 -62 173 -55 9 9 -14 21 -78 43 -69 22 -112
28 -95 12z"/>
<path d="M2714 2961 c3 -5 19 -14 36 -19 37 -14 52 4 15 18 -33 12 -58 13 -51
1z"/>
<path d="M2930 2896 c0 -11 137 -59 163 -57 21 2 7 16 -28 28 -103 35 -135 42
-135 29z"/>
</g>
</svg>
